<?xml version="1.0" encoding="utf-8"?>
<!-- Generator: Adobe Illustrator 21.1.0, SVG Export Plug-In . SVG Version: 6.00 Build 0)  -->
<svg version="1.1" id="Ebene_1" xmlns="http://www.w3.org/2000/svg" xmlns:xlink="http://www.w3.org/1999/xlink" x="0px" y="0px"
	 viewBox="0 0 146.5 101.1" style="enable-background:new 0 0 146.5 101.1;" xml:space="preserve">
<style type="text/css">
	.st0{clip-path:url(#SVGID_2_);}
	.st1{clip-path:url(#SVGID_4_);}
</style>
<g>
	<polygon points="43.1,63 43.1,65 46.6,65 46.6,66.3 43.1,66.3 43.1,69.8 41.6,69.8 41.6,61.7 46.8,61.7 46.8,63 	"/>
	<polygon points="49.7,66.3 49.7,69.8 48.2,69.8 48.2,61.7 49.7,61.7 49.7,65 53.3,65 53.3,61.7 54.8,61.7 54.8,69.8 53.3,69.8 
		53.3,66.3 	"/>
	<g>
		<defs>
			<rect id="SVGID_1_" x="17" y="17" width="112.5" height="69.4"/>
		</defs>
		<clipPath id="SVGID_2_">
			<use xlink:href="#SVGID_1_"  style="overflow:visible;"/>
		</clipPath>
		<path class="st0" d="M63.1,63.8c-0.5-0.6-1.2-1-2.1-1c-0.9,0-1.5,0.5-1.5,1.1c0,0.6,0.4,0.8,1.3,1l1,0.2c1.5,0.3,2.6,0.8,2.6,2.3
			c0,1.5-1.2,2.5-3.3,2.5c-1.8,0-3-0.9-3.5-1.7l1.2-0.9c0.4,0.6,1.3,1.2,2.4,1.2c1.1,0,1.7-0.5,1.7-1.1c0-0.6-0.6-0.9-1.4-1.1
			l-1.1-0.2C59,66,57.9,65.4,57.9,64c0-1.5,1.4-2.4,3.1-2.4c1.7,0,2.7,0.8,3.2,1.4L63.1,63.8z"/>
		<path class="st0" d="M69,67.8v-0.7c-0.2,0.1-0.4,0.1-0.8,0.2l-0.5,0.1c-0.6,0.1-0.9,0.3-0.9,0.8c0,0.5,0.3,0.8,1,0.8
			C68.5,69,69,68.6,69,67.8 M70.3,68.5c0,0.4,0,0.5,0.4,0.5h0.1v0.9c-0.1,0-0.3,0.1-0.6,0.1c-0.5,0-0.9-0.1-1-0.6h0
			c-0.2,0.3-0.7,0.6-1.7,0.6c-1.1,0-2-0.6-2-1.8c0-0.4,0.1-0.8,0.3-1c0.3-0.4,0.9-0.6,1.7-0.8l1.3-0.2c0.3-0.1,0.4-0.1,0.4-0.3v-0.1
			c0-0.5-0.3-0.7-1-0.7c-0.8,0-1.2,0.3-1.2,1L65.6,66c0-1.4,1.1-2,2.5-2c1.3,0,2.3,0.4,2.3,1.7V68.5z"/>
	</g>
	<rect x="72.1" y="61.7" width="1.4" height="8.2"/>
	<polygon points="79.8,64.1 79.8,65.2 76.7,68.6 79.8,68.6 79.8,69.8 74.9,69.8 74.9,68.8 78,65.3 75,65.3 75,64.1 	"/>
	<g>
		<defs>
			<rect id="SVGID_3_" x="17" y="17" width="112.5" height="69.4"/>
		</defs>
		<clipPath id="SVGID_4_">
			<use xlink:href="#SVGID_3_"  style="overflow:visible;"/>
		</clipPath>
		<path class="st1" d="M84,68.8c0.9,0,1.5-0.7,1.5-1.8c0-1.2-0.6-1.8-1.5-1.8c-0.9,0-1.5,0.7-1.5,1.8C82.6,68.1,83.2,68.8,84,68.8
			 M82.6,69.2v0.6h-1.4v-8.2h1.4v3.1c0.3-0.4,0.9-0.8,1.7-0.8c1.5,0,2.5,1.2,2.5,3c0,1.7-1,3-2.5,3C83.5,70,83,69.7,82.6,69.2"/>
		<path class="st1" d="M88,64.1h1.4v3c0,0.4,0,0.8,0.1,1.1c0.1,0.3,0.4,0.5,0.9,0.5c0.9,0,1.2-0.7,1.2-1.6v-3.1h1.4v5.7h-1.4v-0.7
			c-0.3,0.5-0.9,0.9-1.7,0.9c-0.6,0-1.1-0.2-1.4-0.6C88.1,69,88,68.6,88,67.4V64.1z"/>
		<path class="st1" d="M95.9,64.1V65c0.1-0.3,0.6-1,1.7-1c0.1,0,0.1,0,0.2,0v1.4c-0.1,0-0.3,0-0.4,0c-0.7,0-1.1,0.3-1.3,0.8
			c-0.1,0.3-0.2,0.6-0.2,1.1v2.6h-1.4v-5.7H95.9z"/>
		<path class="st1" d="M101.3,65.2c-0.9,0-1.5,0.6-1.5,1.8c0,1.1,0.5,1.8,1.5,1.8c0.9,0,1.5-0.7,1.5-1.8
			C102.7,65.8,102.2,65.2,101.3,65.2 M100,70.1c0.1,0.5,0.3,1,1.3,1c1,0,1.4-0.4,1.4-1.5v-0.5h0c-0.2,0.3-0.7,0.7-1.7,0.7
			c-1.5,0-2.5-1.1-2.5-2.9c0-1.8,0.9-3,2.5-3c0.8,0,1.4,0.4,1.7,0.8v-0.6h1.4v5.4c0,0.6,0,1-0.2,1.4c-0.4,1-1.2,1.3-2.6,1.3
			c-1.7,0-2.6-0.8-2.6-2L100,70.1z"/>
		<path class="st1" d="M90,30.1c-0.8-1.1-2-1.6-3.4-1.8c-0.3-1.6-0.8-3-1.6-4.3c3.1-1.8,3.5-4.6,3.5-4.7c0.1-0.4-0.2-0.7-0.6-0.8h0
			c-3.8-1.3-8-0.5-9.2-0.2C78,18,75.9,17,72.8,17c0,0,0,0,0,0c0,0,0,0,0,0c-3.1,0-5.2,1-5.9,1.4c-1.1-0.3-5.4-1.1-9.2,0.2h0
			c-0.4,0.1-0.7,0.4-0.6,0.8c0,0.1,0.4,2.9,3.5,4.7c-0.8,1.3-1.3,2.8-1.6,4.3c-1.5,0.1-2.6,0.7-3.4,1.8c-0.8,1-1.2,2.5-1.2,4.2
			c0,7.7,7.4,18.9,17.7,19.4c0.2,0,0.3,0,0.5,0c0.1,0,0.1,0,0.2,0c0,0,0,0,0,0s0,0,0,0c0,0,0,0,0,0c0,0,0,0,0,0c0.1,0,0.1,0,0.2,0
			c0.2,0,0.4,0,0.5,0c10.3-0.5,17.7-11.8,17.7-19.4C91.2,32.6,90.8,31.2,90,30.1 M84.2,22.9c-0.3-0.4-0.6-0.7-0.9-1
			c1-0.3,2.1-0.7,3.2-1.2C86.1,21.3,85.4,22.2,84.2,22.9 M65.3,19.5c0.9,0.1,1.6,0.3,1.6,0.3c0.2,0.1,0.4,0,0.6-0.1
			c0,0,2-1.3,5.4-1.3h0c0,0,0,0,0,0h0c0,0,0,0,0,0h0c3.4,0,5.4,1.3,5.4,1.3c0.2,0.1,0.4,0.1,0.6,0.1c0,0,0.6-0.2,1.6-0.3
			c1.3-0.2,3.3-0.4,5.3,0c-1.2,0.5-2.4,0.9-3.5,1.3c-0.6,0.2-1.1,0.3-1.6,0.5c0,0-0.1,0-0.1,0c-3.3,0.9-6,1.8-7.6,4.8h0
			c-1.5-3-4.3-3.8-7.6-4.8c0,0-0.1,0-0.1,0c-0.5-0.1-1.1-0.3-1.6-0.5c-1.1-0.3-2.3-0.7-3.5-1.2C62,19.1,64,19.3,65.3,19.5
			 M59.1,20.6c1.1,0.5,2.2,0.9,3.2,1.2c-0.3,0.3-0.6,0.7-0.9,1C60.3,22.2,59.6,21.3,59.1,20.6 M63.9,22.3c0.3,0.1,0.6,0.2,0.9,0.3
			c3.7,1.1,6.1,1.8,7.3,5.3h0c-0.8,0.3-1.4,1.1-2.2,1.9c0,0-0.1,0.1-0.1,0.1c-0.1-2-1.8-3.6-3.8-3.6c-2.1,0-3.8,1.7-3.8,3.8
			c0,2.1,1.7,3.8,3.8,3.8h0h0c0,0,0,0,0,0c2.2,0,3.7-1.8,4.9-3.2c0.6-0.8,1.4-1.6,1.8-1.6c0,0,0,0,0,0c0,0,0,0,0,0
			c0.5,0,1.2,0.9,1.8,1.6c1.2,1.4,2.7,3.1,4.9,3.2c0,0,0,0,0.1,0h0h0c2.1,0,3.8-1.7,3.8-3.8c0-2.1-1.7-3.8-3.8-3.8
			c-2,0-3.7,1.6-3.8,3.6c0,0-0.1-0.1-0.1-0.1c-0.7-0.9-1.4-1.6-2.2-1.9c1.2-3.6,3.6-4.3,7.3-5.3c0.3-0.1,0.6-0.2,0.9-0.3
			c2.1,2,3.5,4.7,3.6,7.8c0,0,0,0.1,0,0.1c0,3.3-2.7,6-5.9,6c-1.5,0-2.8-0.4-3.8-1c0-0.1,0-0.3-0.1-0.4l-2.1-3.5
			c-0.1-0.2-0.4-0.3-0.6-0.3c-0.2,0-0.5,0.1-0.6,0.3l-2.1,3.5C70,34.8,70,35,70,35.1c-1,0.7-2.3,1-3.8,1c-3.3,0-5.9-2.7-5.9-6
			c0,0,0-0.1,0-0.1C60.4,27,61.8,24.3,63.9,22.3 M68.4,30.1c0,1.3-1.1,2.4-2.4,2.4h0c-1.3,0-2.4-1.1-2.4-2.4c0-1.3,1.1-2.4,2.4-2.4
			C67.3,27.7,68.4,28.8,68.4,30.1 M77.2,30.1c0-1.3,1.1-2.4,2.4-2.4c1.3,0,2.4,1.1,2.4,2.4c0,1.3-1.1,2.4-2.4,2.4c0,0,0,0,0,0
			C78.3,32.5,77.2,31.4,77.2,30.1 M74.2,35.1L74,35.6l-1.2,3.3l-1.2-3.3l-0.2-0.4l1.1-1.7l0.3-0.5l0.3,0.5L74.2,35.1z M55.8,34.4
			c0-1.4,0.3-2.6,0.9-3.4c0.5-0.7,1.2-1.1,2.1-1.2c0,0.3,0,0.6,0,1c0,6.8,1.7,13.9,5.1,18.4C59,45.5,55.8,39.1,55.8,34.4 M60.4,34.7
			c1.1,1.4,2.6,2.4,4.4,2.7c0.1,2.2,0.9,10.3,3.8,14.3C63.9,49.2,61.1,41.9,60.4,34.7 M72.8,52.4c-4.9,0-6.4-10.1-6.6-14.9
			c0,0,0,0,0,0c1.6,0,3.1-0.4,4.3-1.1l1.7,4.3c0.1,0.3,0.4,0.9,0.7,0.9c0.3,0,0.6-0.7,0.7-0.9l1.7-4.3c1.2,0.7,2.6,1.1,4.3,1.1
			c0,0,0,0,0,0C79.2,42.3,77.7,52.4,72.8,52.4 M77,51.8c3-4,3.7-12.1,3.8-14.3c1.8-0.3,3.3-1.3,4.4-2.7C84.6,41.9,81.8,49.2,77,51.8
			 M81.7,49.2c3.5-4.5,5.1-11.6,5.1-18.4c0-0.3,0-0.7,0-1c0.9,0.1,1.6,0.5,2.1,1.2c0.6,0.8,0.9,1.9,0.9,3.4
			C89.8,39.1,86.6,45.5,81.7,49.2"/>
		<path class="st1" d="M64.4,30.2c0,0.9,0.7,1.6,1.6,1.6c0.9,0,1.6-0.7,1.6-1.6c0-0.9-0.7-1.6-1.6-1.6
			C65.1,28.5,64.4,29.3,64.4,30.2 M67.1,29.9c0,0.4-0.4,0.8-0.8,0.8c-0.4,0-0.8-0.4-0.8-0.8c0-0.4,0.4-0.8,0.8-0.8
			C66.7,29.1,67.1,29.4,67.1,29.9"/>
		<path class="st1" d="M78,30.2c0,0.9,0.7,1.6,1.6,1.6c0.9,0,1.6-0.7,1.6-1.6c0-0.9-0.7-1.6-1.6-1.6C78.8,28.5,78,29.3,78,30.2
			 M80.7,29.9c0,0.4-0.4,0.8-0.8,0.8c-0.4,0-0.8-0.4-0.8-0.8c0-0.4,0.4-0.8,0.8-0.8C80.3,29.1,80.7,29.4,80.7,29.9"/>
		<path class="st1" d="M129.5,78.3h-1l-1.2,3.4c-0.2,0.5-0.3,1.1-0.3,1.1h0c0,0-0.2-0.5-0.3-1l-1.1-3.5h-1.1l2,5.7l-0.3,0.7
			c-0.1,0.3-0.2,0.5-0.3,0.6c-0.2,0.2-0.4,0.2-0.7,0.2c-0.2,0-0.4,0-0.6-0.1v0.8c0.2,0,0.4,0.1,0.7,0.1c0.8,0,1.4-0.2,1.7-1.2
			L129.5,78.3z M122.6,81.1c0,1.4-0.8,2-1.8,2c-1,0-1.7-0.8-1.7-2.1c0-1.3,0.7-2.1,1.7-2.1C121.8,79,122.6,79.7,122.6,81.1
			 M118.3,84.4c0.1,1.1,0.7,2,2.5,2c1.3,0,2.1-0.3,2.4-1.2c0.2-0.4,0.3-0.9,0.3-1.6v-5.4h-1v0.8c-0.3-0.5-1-1-1.8-1
			c-1.5,0-2.5,1.1-2.5,2.9c0,1.8,1,2.9,2.5,2.9c0.9,0,1.6-0.4,1.8-1c0,0,0,0.4,0,0.6c0,1.3-0.3,2-1.7,2c-1.1,0-1.5-0.7-1.6-1.3
			L118.3,84.4z M112.7,81.2c0-1.4,0.7-2.2,1.7-2.2c1,0,1.7,0.8,1.7,2.2c0,1.4-0.7,2.2-1.7,2.2C113.4,83.3,112.7,82.5,112.7,81.2
			 M111.7,81.2c0,1.8,1.1,3,2.7,3c1.6,0,2.7-1.2,2.7-3c0-1.8-1.1-3-2.7-3C112.8,78.2,111.7,79.3,111.7,81.2 M110.3,75.8h-1V84h1
			V75.8z M103.5,81.2c0-1.4,0.7-2.2,1.7-2.2c1,0,1.7,0.8,1.7,2.2c0,1.4-0.7,2.2-1.7,2.2C104.1,83.3,103.5,82.5,103.5,81.2
			 M102.4,81.2c0,1.8,1.1,3,2.7,3c1.6,0,2.7-1.2,2.7-3c0-1.8-1.1-3-2.7-3C103.5,78.2,102.4,79.3,102.4,81.2 M101.1,80.4
			c0-0.7-0.1-1.2-0.4-1.5c-0.3-0.5-0.9-0.7-1.6-0.7c-0.9,0-1.5,0.5-1.8,1v-0.9h-1V84h1v-3.3c0-0.9,0.6-1.7,1.5-1.7
			c0.8,0,1.3,0.4,1.3,1.6V84h1V80.4z M94.6,80.4c0-0.7-0.1-1.2-0.4-1.5c-0.3-0.5-0.9-0.7-1.6-0.7c-0.9,0-1.5,0.5-1.8,1v-3.3h-1V84h1
			v-3.3c0-0.9,0.6-1.7,1.5-1.7c0.8,0,1.3,0.4,1.3,1.6V84h1V80.4z M87.9,82.3c-0.3,0.6-0.8,1-1.7,1c-1,0-1.7-0.8-1.7-2.2
			c0-1.4,0.7-2.2,1.7-2.2c0.8,0,1.3,0.5,1.6,1.2l0.8-0.4c-0.4-1-1.2-1.5-2.4-1.5c-1.6,0-2.7,1.2-2.7,3c0,1.8,1,3,2.7,3
			c1.1,0,2-0.5,2.4-1.5L87.9,82.3z M80,79c0.9,0,1.5,0.6,1.5,1.6h-3.2C78.4,79.6,79.1,79,80,79 M81.8,82.3c-0.2,0.3-0.7,1-1.7,1
			c-1.3,0-1.8-1-1.8-1.9h4.3v-0.2c0-1.7-0.9-3-2.6-3c-1.6,0-2.7,1.2-2.7,3c0,1.9,1.1,3,2.7,3c1.6,0,2.3-1,2.5-1.3L81.8,82.3z
			 M71.7,76.8h2.5V84h1.1v-7.2h2.5v-0.9h-6.1V76.8z M70.7,82.1c0,0.9-0.7,1.2-1.4,1.2c-0.7,0-1.2-0.3-1.2-1c0-0.3,0.1-0.5,0.3-0.6
			c0.3-0.2,0.7-0.3,1.1-0.4l0.6-0.1c0.4-0.1,0.6-0.1,0.7-0.2V82.1z M72.3,83.4h-0.1c-0.3,0-0.5-0.1-0.5-0.5V80
			c0-1.4-0.9-1.8-2.1-1.8c-1.3,0-2.4,0.6-2.4,1.9l1,0.1c0-0.7,0.3-1.2,1.3-1.2c1,0,1.2,0.4,1.2,1v0.1c0,0.2-0.1,0.3-0.5,0.3
			l-0.8,0.1c-0.6,0.1-1.2,0.2-1.7,0.5c-0.4,0.3-0.7,0.7-0.7,1.3c0,1.1,0.8,1.7,1.9,1.7c1.1,0,1.6-0.5,1.8-0.8h0c0,0.5,0.3,0.8,1,0.8
			c0.3,0,0.4,0,0.6,0V83.4z M65.7,75.8h-1v1.3h1V75.8z M65.7,78.3h-1V84h1V78.3z M61.9,81.1c0,1.5-0.8,2.2-1.8,2.2
			c-1,0-1.7-0.8-1.7-2.2c0-1.4,0.7-2.2,1.7-2.2C61.1,79,61.9,79.7,61.9,81.1 M59.9,84.1c1.1,0,1.7-0.6,1.9-1V84h1v-8.2h-1v3.3
			c-0.2-0.4-0.8-1-1.8-1c-1.4,0-2.5,1.1-2.5,3C57.4,83,58.5,84.1,59.9,84.1 M53.9,79c0.9,0,1.5,0.6,1.5,1.6h-3.2
			C52.3,79.6,53,79,53.9,79 M55.7,82.3c-0.2,0.3-0.7,1-1.7,1c-1.3,0-1.8-1-1.8-1.9h4.3v-0.2c0-1.7-0.9-3-2.6-3c-1.6,0-2.7,1.2-2.7,3
			c0,1.9,1.1,3,2.7,3c1.6,0,2.3-1,2.5-1.3L55.7,82.3z M46.4,84l1.8-5.7c0.2-0.5,0.4-1.4,0.4-1.4h0v1.7V84h1v-8.2h-1.5l-1.8,5.5
			c-0.2,0.6-0.3,1.1-0.4,1.3c-0.1-0.2-0.2-0.7-0.4-1.2l-1.9-5.5h-1.5V84h1v-5.2c0-0.7,0-1.7,0-1.7h0c0,0,0.2,0.9,0.4,1.4l1.8,5.6
			H46.4z M40.2,75.8h-1v1.3h1V75.8z M40.2,78.3h-1V84h1V78.3z M34.8,79h1.1V83c0,0.2,0,0.4,0.1,0.6c0.2,0.5,0.6,0.6,1.2,0.6
			c0.4,0,0.7,0,1-0.1v-0.8c-0.2,0-0.4,0.1-0.7,0.1c-0.3,0-0.4-0.1-0.5-0.2c-0.1-0.1-0.1-0.3-0.1-0.5V79h1.3v-0.8h-1.3V76l-1,0.2v2.1
			h-1.1V79z M33.9,75.8h-1V84h1V75.8z M26.4,81.5c0,1.2,0.1,1.7,0.5,2.1c0.3,0.4,0.8,0.5,1.4,0.5c1,0,1.5-0.4,1.8-1V84h1v-5.7h-1
			v3.3c0,0.9-0.5,1.7-1.5,1.7c-0.5,0-0.9-0.1-1.1-0.5c-0.1-0.3-0.2-0.6-0.2-1.2v-3.3h-1V81.5z M21.3,84l1.8-5.7
			c0.2-0.5,0.4-1.4,0.4-1.4h0v1.7V84h1v-8.2h-1.5l-1.8,5.5c-0.2,0.6-0.3,1.1-0.4,1.3c-0.1-0.2-0.2-0.7-0.4-1.2l-1.9-5.5H17V84h1
			v-5.2c0-0.7,0-1.7,0-1.7h0c0,0,0.2,0.9,0.4,1.4l1.8,5.6H21.3z"/>
	</g>
</g>
</svg>
