<svg width="757" height="427" viewBox="0 0 757 427" fill="none" xmlns="http://www.w3.org/2000/svg">
<rect width="757" height="427" rx="61" fill="#DFEEF3"/>
<path fill-rule="evenodd" clip-rule="evenodd" d="M58 31C43.0883 31 31 43.0883 31 58V371C31 385.912 43.0883 398 58 398H701C715.912 398 728 385.912 728 371V58C728 43.0883 715.912 31 701 31H58ZM62 38C49.2974 38 39 48.2975 39 61V367C39 379.703 49.2974 390 62 390H697C709.703 390 720 379.703 720 367V61C720 48.2975 709.703 38 697 38H62Z" fill="#B4C5CD"/>
<path fill-rule="evenodd" clip-rule="evenodd" d="M61 0H86V31H61C44.4315 31 31 44.4315 31 61V81H0V61C0 27.3106 27.3106 0 61 0Z" fill="url(#paint0_radial_4_214)"/>
<path fill-rule="evenodd" clip-rule="evenodd" d="M757 61V86H726V61C726 44.4315 712.569 31 696 31H676V0L696 0C729.689 0 757 27.3106 757 61Z" fill="url(#paint1_radial_4_214)"/>
<path fill-rule="evenodd" clip-rule="evenodd" d="M696 427H671V396H696C712.569 396 726 382.569 726 366V346H757V366C757 399.689 729.689 427 696 427Z" fill="url(#paint2_radial_4_214)"/>
<path fill-rule="evenodd" clip-rule="evenodd" d="M0 366L0 341H31V366C31 382.569 44.4315 396 61 396H81V427H61C27.3106 427 0 399.689 0 366Z" fill="url(#paint3_radial_4_214)"/>
<rect x="81" y="427" width="31" height="590" transform="rotate(-90 81 427)" fill="url(#paint4_linear_4_214)"/>
<rect y="81" width="31" height="260" fill="url(#paint5_linear_4_214)"/>
<rect x="757" y="346" width="31" height="260" transform="rotate(-180 757 346)" fill="url(#paint6_linear_4_214)"/>
<rect x="676" width="31" height="590" transform="rotate(90 676 0)" fill="url(#paint7_linear_4_214)"/>
<circle cx="67.5" cy="48.5" r="2.5" fill="#CCE0E1"/>
<circle cx="67.5" cy="150.5" r="2.5" fill="#CCE0E1"/>
<circle cx="67.5" cy="250.5" r="2.5" fill="#CCE0E1"/>
<circle cx="67.5" cy="100.5" r="2.5" fill="#CCE0E1"/>
<circle cx="67.5" cy="202.5" r="2.5" fill="#CCE0E1"/>
<circle cx="67.5" cy="302.5" r="2.5" fill="#CCE0E1"/>
<circle cx="67.5" cy="354.5" r="2.5" fill="#CCE0E1"/>
<circle cx="67.5" cy="73.5" r="2.5" fill="#CCE0E1"/>
<circle cx="67.5" cy="175.5" r="2.5" fill="#CCE0E1"/>
<circle cx="67.5" cy="275.5" r="2.5" fill="#CCE0E1"/>
<circle cx="67.5" cy="125.5" r="2.5" fill="#CCE0E1"/>
<circle cx="67.5" cy="227.5" r="2.5" fill="#CCE0E1"/>
<circle cx="67.5" cy="327.5" r="2.5" fill="#CCE0E1"/>
<circle cx="67.5" cy="379.5" r="2.5" fill="#CCE0E1"/>
<circle cx="108.5" cy="48.5" r="2.5" fill="#CCE0E1"/>
<circle cx="108.5" cy="150.5" r="2.5" fill="#CCE0E1"/>
<circle cx="108.5" cy="250.5" r="2.5" fill="#CCE0E1"/>
<circle cx="108.5" cy="100.5" r="2.5" fill="#CCE0E1"/>
<circle cx="108.5" cy="202.5" r="2.5" fill="#CCE0E1"/>
<circle cx="108.5" cy="302.5" r="2.5" fill="#CCE0E1"/>
<circle cx="108.5" cy="354.5" r="2.5" fill="#CCE0E1"/>
<circle cx="108.5" cy="73.5" r="2.5" fill="#CCE0E1"/>
<circle cx="108.5" cy="175.5" r="2.5" fill="#CCE0E1"/>
<circle cx="108.5" cy="275.5" r="2.5" fill="#CCE0E1"/>
<circle cx="108.5" cy="125.5" r="2.5" fill="#CCE0E1"/>
<circle cx="108.5" cy="227.5" r="2.5" fill="#CCE0E1"/>
<circle cx="108.5" cy="327.5" r="2.5" fill="#CCE0E1"/>
<circle cx="108.5" cy="379.5" r="2.5" fill="#CCE0E1"/>
<circle cx="190.5" cy="48.5" r="2.5" fill="#CCE0E1"/>
<circle cx="190.5" cy="150.5" r="2.5" fill="#CCE0E1"/>
<circle cx="190.5" cy="250.5" r="2.5" fill="#CCE0E1"/>
<circle cx="190.5" cy="100.5" r="2.5" fill="#CCE0E1"/>
<circle cx="190.5" cy="202.5" r="2.5" fill="#CCE0E1"/>
<circle cx="190.5" cy="302.5" r="2.5" fill="#CCE0E1"/>
<circle cx="190.5" cy="354.5" r="2.5" fill="#CCE0E1"/>
<circle cx="190.5" cy="73.5" r="2.5" fill="#CCE0E1"/>
<circle cx="190.5" cy="175.5" r="2.5" fill="#CCE0E1"/>
<circle cx="190.5" cy="275.5" r="2.5" fill="#CCE0E1"/>
<circle cx="190.5" cy="125.5" r="2.5" fill="#CCE0E1"/>
<circle cx="190.5" cy="227.5" r="2.5" fill="#CCE0E1"/>
<circle cx="190.5" cy="327.5" r="2.5" fill="#CCE0E1"/>
<circle cx="190.5" cy="379.5" r="2.5" fill="#CCE0E1"/>
<circle cx="232.5" cy="48.5" r="2.5" fill="#CCE0E1"/>
<circle cx="232.5" cy="150.5" r="2.5" fill="#CCE0E1"/>
<circle cx="232.5" cy="250.5" r="2.5" fill="#CCE0E1"/>
<circle cx="232.5" cy="100.5" r="2.5" fill="#CCE0E1"/>
<circle cx="232.5" cy="202.5" r="2.5" fill="#CCE0E1"/>
<circle cx="232.5" cy="302.5" r="2.5" fill="#CCE0E1"/>
<circle cx="232.5" cy="354.5" r="2.5" fill="#CCE0E1"/>
<circle cx="232.5" cy="73.5" r="2.5" fill="#CCE0E1"/>
<circle cx="232.5" cy="175.5" r="2.5" fill="#CCE0E1"/>
<circle cx="232.5" cy="275.5" r="2.5" fill="#CCE0E1"/>
<circle cx="232.5" cy="125.5" r="2.5" fill="#CCE0E1"/>
<circle cx="232.5" cy="227.5" r="2.5" fill="#CCE0E1"/>
<circle cx="232.5" cy="327.5" r="2.5" fill="#CCE0E1"/>
<circle cx="232.5" cy="379.5" r="2.5" fill="#CCE0E1"/>
<circle cx="274.5" cy="48.5" r="2.5" fill="#CCE0E1"/>
<circle cx="274.5" cy="150.5" r="2.5" fill="#CCE0E1"/>
<circle cx="274.5" cy="250.5" r="2.5" fill="#CCE0E1"/>
<circle cx="274.5" cy="100.5" r="2.5" fill="#CCE0E1"/>
<circle cx="274.5" cy="202.5" r="2.5" fill="#CCE0E1"/>
<circle cx="274.5" cy="302.5" r="2.5" fill="#CCE0E1"/>
<circle cx="274.5" cy="354.5" r="2.5" fill="#CCE0E1"/>
<circle cx="274.5" cy="73.5" r="2.5" fill="#CCE0E1"/>
<circle cx="274.5" cy="175.5" r="2.5" fill="#CCE0E1"/>
<circle cx="274.5" cy="275.5" r="2.5" fill="#CCE0E1"/>
<circle cx="274.5" cy="125.5" r="2.5" fill="#CCE0E1"/>
<circle cx="274.5" cy="227.5" r="2.5" fill="#CCE0E1"/>
<circle cx="274.5" cy="327.5" r="2.5" fill="#CCE0E1"/>
<circle cx="274.5" cy="379.5" r="2.5" fill="#CCE0E1"/>
<circle cx="316.5" cy="48.5" r="2.5" fill="#CCE0E1"/>
<circle cx="316.5" cy="150.5" r="2.5" fill="#CCE0E1"/>
<circle cx="316.5" cy="250.5" r="2.5" fill="#CCE0E1"/>
<circle cx="316.5" cy="100.5" r="2.5" fill="#CCE0E1"/>
<circle cx="316.5" cy="202.5" r="2.5" fill="#CCE0E1"/>
<circle cx="316.5" cy="302.5" r="2.5" fill="#CCE0E1"/>
<circle cx="316.5" cy="354.5" r="2.5" fill="#CCE0E1"/>
<circle cx="316.5" cy="73.5" r="2.5" fill="#CCE0E1"/>
<circle cx="316.5" cy="175.5" r="2.5" fill="#CCE0E1"/>
<circle cx="316.5" cy="275.5" r="2.5" fill="#CCE0E1"/>
<circle cx="316.5" cy="125.5" r="2.5" fill="#CCE0E1"/>
<circle cx="316.5" cy="227.5" r="2.5" fill="#CCE0E1"/>
<circle cx="316.5" cy="327.5" r="2.5" fill="#CCE0E1"/>
<circle cx="316.5" cy="379.5" r="2.5" fill="#CCE0E1"/>
<circle cx="356.5" cy="48.5" r="2.5" fill="#CCE0E1"/>
<circle cx="356.5" cy="150.5" r="2.5" fill="#CCE0E1"/>
<circle cx="356.5" cy="250.5" r="2.5" fill="#CCE0E1"/>
<circle cx="356.5" cy="100.5" r="2.5" fill="#CCE0E1"/>
<circle cx="356.5" cy="202.5" r="2.5" fill="#CCE0E1"/>
<circle cx="356.5" cy="302.5" r="2.5" fill="#CCE0E1"/>
<circle cx="356.5" cy="354.5" r="2.5" fill="#CCE0E1"/>
<circle cx="356.5" cy="73.5" r="2.5" fill="#CCE0E1"/>
<circle cx="356.5" cy="175.5" r="2.5" fill="#CCE0E1"/>
<circle cx="356.5" cy="275.5" r="2.5" fill="#CCE0E1"/>
<circle cx="356.5" cy="125.5" r="2.5" fill="#CCE0E1"/>
<circle cx="356.5" cy="227.5" r="2.5" fill="#CCE0E1"/>
<circle cx="356.5" cy="327.5" r="2.5" fill="#CCE0E1"/>
<circle cx="356.5" cy="379.5" r="2.5" fill="#CCE0E1"/>
<circle cx="398.5" cy="48.5" r="2.5" fill="#CCE0E1"/>
<circle cx="398.5" cy="150.5" r="2.5" fill="#CCE0E1"/>
<circle cx="398.5" cy="250.5" r="2.5" fill="#CCE0E1"/>
<circle cx="398.5" cy="100.5" r="2.5" fill="#CCE0E1"/>
<circle cx="398.5" cy="202.5" r="2.5" fill="#CCE0E1"/>
<circle cx="398.5" cy="302.5" r="2.5" fill="#CCE0E1"/>
<circle cx="398.5" cy="354.5" r="2.5" fill="#CCE0E1"/>
<circle cx="398.5" cy="73.5" r="2.5" fill="#CCE0E1"/>
<circle cx="398.5" cy="175.5" r="2.5" fill="#CCE0E1"/>
<circle cx="398.5" cy="275.5" r="2.5" fill="#CCE0E1"/>
<circle cx="398.5" cy="125.5" r="2.5" fill="#CCE0E1"/>
<circle cx="398.5" cy="227.5" r="2.5" fill="#CCE0E1"/>
<circle cx="398.5" cy="327.5" r="2.5" fill="#CCE0E1"/>
<circle cx="398.5" cy="379.5" r="2.5" fill="#CCE0E1"/>
<circle cx="439.5" cy="48.5" r="2.5" fill="#CCE0E1"/>
<circle cx="439.5" cy="150.5" r="2.5" fill="#CCE0E1"/>
<circle cx="439.5" cy="250.5" r="2.5" fill="#CCE0E1"/>
<circle cx="439.5" cy="100.5" r="2.5" fill="#CCE0E1"/>
<circle cx="439.5" cy="202.5" r="2.5" fill="#CCE0E1"/>
<circle cx="439.5" cy="302.5" r="2.5" fill="#CCE0E1"/>
<circle cx="439.5" cy="354.5" r="2.5" fill="#CCE0E1"/>
<circle cx="439.5" cy="73.5" r="2.5" fill="#CCE0E1"/>
<circle cx="439.5" cy="175.5" r="2.5" fill="#CCE0E1"/>
<circle cx="439.5" cy="275.5" r="2.5" fill="#CCE0E1"/>
<circle cx="439.5" cy="125.5" r="2.5" fill="#CCE0E1"/>
<circle cx="439.5" cy="227.5" r="2.5" fill="#CCE0E1"/>
<circle cx="439.5" cy="327.5" r="2.5" fill="#CCE0E1"/>
<circle cx="439.5" cy="379.5" r="2.5" fill="#CCE0E1"/>
<circle cx="481.5" cy="48.5" r="2.5" fill="#CCE0E1"/>
<circle cx="481.5" cy="150.5" r="2.5" fill="#CCE0E1"/>
<circle cx="481.5" cy="250.5" r="2.5" fill="#CCE0E1"/>
<circle cx="481.5" cy="100.5" r="2.5" fill="#CCE0E1"/>
<circle cx="481.5" cy="202.5" r="2.5" fill="#CCE0E1"/>
<circle cx="481.5" cy="302.5" r="2.5" fill="#CCE0E1"/>
<circle cx="481.5" cy="354.5" r="2.5" fill="#CCE0E1"/>
<circle cx="481.5" cy="73.5" r="2.5" fill="#CCE0E1"/>
<circle cx="481.5" cy="175.5" r="2.5" fill="#CCE0E1"/>
<circle cx="481.5" cy="275.5" r="2.5" fill="#CCE0E1"/>
<circle cx="481.5" cy="125.5" r="2.5" fill="#CCE0E1"/>
<circle cx="481.5" cy="227.5" r="2.5" fill="#CCE0E1"/>
<circle cx="481.5" cy="327.5" r="2.5" fill="#CCE0E1"/>
<circle cx="481.5" cy="379.5" r="2.5" fill="#CCE0E1"/>
<circle cx="522.5" cy="48.5" r="2.5" fill="#CCE0E1"/>
<circle cx="522.5" cy="150.5" r="2.5" fill="#CCE0E1"/>
<circle cx="522.5" cy="250.5" r="2.5" fill="#CCE0E1"/>
<circle cx="522.5" cy="100.5" r="2.5" fill="#CCE0E1"/>
<circle cx="522.5" cy="202.5" r="2.5" fill="#CCE0E1"/>
<circle cx="522.5" cy="302.5" r="2.5" fill="#CCE0E1"/>
<circle cx="522.5" cy="354.5" r="2.5" fill="#CCE0E1"/>
<circle cx="522.5" cy="73.5" r="2.5" fill="#CCE0E1"/>
<circle cx="522.5" cy="175.5" r="2.5" fill="#CCE0E1"/>
<circle cx="522.5" cy="275.5" r="2.5" fill="#CCE0E1"/>
<circle cx="522.5" cy="125.5" r="2.5" fill="#CCE0E1"/>
<circle cx="522.5" cy="227.5" r="2.5" fill="#CCE0E1"/>
<circle cx="522.5" cy="327.5" r="2.5" fill="#CCE0E1"/>
<circle cx="522.5" cy="379.5" r="2.5" fill="#CCE0E1"/>
<circle cx="563.5" cy="48.5" r="2.5" fill="#CCE0E1"/>
<circle cx="563.5" cy="150.5" r="2.5" fill="#CCE0E1"/>
<circle cx="563.5" cy="250.5" r="2.5" fill="#CCE0E1"/>
<circle cx="563.5" cy="100.5" r="2.5" fill="#CCE0E1"/>
<circle cx="563.5" cy="202.5" r="2.5" fill="#CCE0E1"/>
<circle cx="563.5" cy="302.5" r="2.5" fill="#CCE0E1"/>
<circle cx="563.5" cy="354.5" r="2.5" fill="#CCE0E1"/>
<circle cx="563.5" cy="73.5" r="2.5" fill="#CCE0E1"/>
<circle cx="563.5" cy="175.5" r="2.5" fill="#CCE0E1"/>
<circle cx="563.5" cy="275.5" r="2.5" fill="#CCE0E1"/>
<circle cx="563.5" cy="125.5" r="2.5" fill="#CCE0E1"/>
<circle cx="563.5" cy="227.5" r="2.5" fill="#CCE0E1"/>
<circle cx="563.5" cy="327.5" r="2.5" fill="#CCE0E1"/>
<circle cx="563.5" cy="379.5" r="2.5" fill="#CCE0E1"/>
<circle cx="645.5" cy="48.5" r="2.5" fill="#CCE0E1"/>
<circle cx="645.5" cy="150.5" r="2.5" fill="#CCE0E1"/>
<circle cx="645.5" cy="250.5" r="2.5" fill="#CCE0E1"/>
<circle cx="645.5" cy="100.5" r="2.5" fill="#CCE0E1"/>
<circle cx="645.5" cy="202.5" r="2.5" fill="#CCE0E1"/>
<circle cx="645.5" cy="302.5" r="2.5" fill="#CCE0E1"/>
<circle cx="645.5" cy="354.5" r="2.5" fill="#CCE0E1"/>
<circle cx="645.5" cy="73.5" r="2.5" fill="#CCE0E1"/>
<circle cx="645.5" cy="175.5" r="2.5" fill="#CCE0E1"/>
<circle cx="645.5" cy="275.5" r="2.5" fill="#CCE0E1"/>
<circle cx="645.5" cy="125.5" r="2.5" fill="#CCE0E1"/>
<circle cx="645.5" cy="227.5" r="2.5" fill="#CCE0E1"/>
<circle cx="645.5" cy="327.5" r="2.5" fill="#CCE0E1"/>
<circle cx="645.5" cy="379.5" r="2.5" fill="#CCE0E1"/>
<circle cx="686.5" cy="48.5" r="2.5" fill="#CCE0E1"/>
<circle cx="686.5" cy="150.5" r="2.5" fill="#CCE0E1"/>
<circle cx="686.5" cy="250.5" r="2.5" fill="#CCE0E1"/>
<circle cx="686.5" cy="100.5" r="2.5" fill="#CCE0E1"/>
<circle cx="686.5" cy="202.5" r="2.5" fill="#CCE0E1"/>
<circle cx="686.5" cy="302.5" r="2.5" fill="#CCE0E1"/>
<circle cx="686.5" cy="354.5" r="2.5" fill="#CCE0E1"/>
<circle cx="686.5" cy="73.5" r="2.5" fill="#CCE0E1"/>
<circle cx="686.5" cy="175.5" r="2.5" fill="#CCE0E1"/>
<circle cx="686.5" cy="275.5" r="2.5" fill="#CCE0E1"/>
<circle cx="686.5" cy="125.5" r="2.5" fill="#CCE0E1"/>
<circle cx="686.5" cy="227.5" r="2.5" fill="#CCE0E1"/>
<circle cx="686.5" cy="327.5" r="2.5" fill="#CCE0E1"/>
<circle cx="686.5" cy="379.5" r="2.5" fill="#CCE0E1"/>
<rect x="146" y="31" width="5" height="365" fill="#25CBF3"/>
<rect x="601" y="31" width="5" height="365" fill="#25CBF3"/>
<path d="M31 288C40.7178 288 50.3405 286.086 59.3186 282.367C68.2967 278.648 76.4544 273.197 83.3259 266.326C90.1974 259.454 95.6482 251.297 99.3671 242.319C103.086 233.34 105 223.718 105 214C105 204.282 103.086 194.66 99.3671 185.681C95.6482 176.703 90.1974 168.546 83.3259 161.674C76.4544 154.803 68.2967 149.352 59.3186 145.633C50.3405 141.914 40.7178 140 31 140L31 144.493C40.1278 144.493 49.1663 146.291 57.5993 149.784C66.0323 153.277 73.6947 158.397 80.149 164.851C86.6033 171.305 91.7232 178.968 95.2163 187.401C98.7093 195.834 100.507 204.872 100.507 214C100.507 223.128 98.7093 232.166 95.2163 240.599C91.7232 249.032 86.6033 256.695 80.149 263.149C73.6947 269.603 66.0323 274.723 57.5993 278.216C49.1663 281.709 40.1278 283.507 31 283.507L31 288Z" fill="#D83672"/>
<path d="M453 214C453 254.869 419.869 288 379 288C338.131 288 305 254.869 305 214C305 173.131 338.131 140 379 140C419.869 140 453 173.131 453 214ZM309.493 214C309.493 252.388 340.612 283.507 379 283.507C417.388 283.507 448.507 252.388 448.507 214C448.507 175.612 417.388 144.493 379 144.493C340.612 144.493 309.493 175.612 309.493 214Z" fill="#D83672"/>
<path d="M395 214.5C395 223.613 387.613 231 378.5 231C369.387 231 362 223.613 362 214.5C362 205.387 369.387 198 378.5 198C387.613 198 395 205.387 395 214.5ZM365.239 214.5C365.239 221.824 371.176 227.761 378.5 227.761C385.824 227.761 391.761 221.824 391.761 214.5C391.761 207.176 385.824 201.239 378.5 201.239C371.176 201.239 365.239 207.176 365.239 214.5Z" fill="#D83672"/>
<path d="M728 140C708.374 140 689.552 147.796 675.674 161.674C661.796 175.552 654 194.374 654 214C654 233.626 661.796 252.448 675.674 266.326C689.552 280.204 708.374 288 728 288L728 283.507C709.566 283.507 691.886 276.184 678.851 263.149C665.816 250.114 658.493 232.434 658.493 214C658.493 195.566 665.816 177.886 678.851 164.851C691.886 151.816 709.566 144.493 728 144.493V140Z" fill="#D83672"/>
<rect x="376" y="31" width="5" height="365" fill="#E53A7C"/>
<circle cx="378.5" cy="214.5" r="13.5" fill="#DFEEF3"/>
<defs>
<radialGradient id="paint0_radial_4_214" cx="0" cy="0" r="1" gradientUnits="userSpaceOnUse" gradientTransform="translate(22 17.5) rotate(49.0283) scale(25.1645 50.5624)">
<stop stop-color="#4B464A"/>
<stop offset="1" stop-color="#302A2C"/>
</radialGradient>
<radialGradient id="paint1_radial_4_214" cx="0" cy="0" r="1" gradientUnits="userSpaceOnUse" gradientTransform="translate(739.5 22) rotate(139.028) scale(25.1645 50.5624)">
<stop stop-color="#4B464A"/>
<stop offset="1" stop-color="#302A2C"/>
</radialGradient>
<radialGradient id="paint2_radial_4_214" cx="0" cy="0" r="1" gradientUnits="userSpaceOnUse" gradientTransform="translate(735 409.5) rotate(-130.972) scale(25.1645 50.5624)">
<stop stop-color="#4B464A"/>
<stop offset="1" stop-color="#302A2C"/>
</radialGradient>
<radialGradient id="paint3_radial_4_214" cx="0" cy="0" r="1" gradientUnits="userSpaceOnUse" gradientTransform="translate(17.5 405) rotate(-40.9717) scale(25.1645 50.5624)">
<stop stop-color="#4B464A"/>
<stop offset="1" stop-color="#302A2C"/>
</radialGradient>
<linearGradient id="paint4_linear_4_214" x1="112" y1="722" x2="81" y2="722" gradientUnits="userSpaceOnUse">
<stop stop-color="#CA3150"/>
<stop offset="1" stop-color="#E46075"/>
</linearGradient>
<linearGradient id="paint5_linear_4_214" x1="31" y1="211" x2="0" y2="211" gradientUnits="userSpaceOnUse">
<stop stop-color="#CA3150"/>
<stop offset="1" stop-color="#E46075"/>
</linearGradient>
<linearGradient id="paint6_linear_4_214" x1="788" y1="476" x2="757" y2="476" gradientUnits="userSpaceOnUse">
<stop stop-color="#CA3150"/>
<stop offset="1" stop-color="#E46075"/>
</linearGradient>
<linearGradient id="paint7_linear_4_214" x1="707" y1="295" x2="676" y2="295" gradientUnits="userSpaceOnUse">
<stop stop-color="#CA3150"/>
<stop offset="1" stop-color="#E46075"/>
</linearGradient>
</defs>
</svg>
